<svg xmlns="http://www.w3.org/2000/svg" version="1.1" xmlns:xlink="http://www.w3.org/1999/xlink" xmlns:svgjs="http://svgjs.com/svgjs" height="188.7147979736328" width="268.0400085449219"><defs id="SvgjsDefs1135"></defs><g id="SvgjsG1136" rel="mainfill" name="main_text" xmlns:name="main_text" transform="translate(3.9000000953674316,-75.92520141601562)" fill="#ED8C2B"><path d="M9.51 173.81Q8.29 170.40 7.07 168.02Q5.85 165.64 4.33 164.18Q2.80 162.72 0.79 161.99Q-1.22 161.26-3.90 161.01L-3.90 158.57Q-3.41 158.57-2.01 158.45Q-0.61 158.33 0.24 158.33Q2.80 158.33 5.67 158.76Q8.53 159.18 11.34 160.77Q14.14 162.35 16.70 165.46Q19.26 168.57 21.09 173.81L37.42 220.86L50.46 182.22L47.54 173.81Q46.32 170.40 45.10 168.02Q43.88 165.64 42.36 164.18Q40.83 162.72 38.82 161.99Q36.81 161.26 34.13 161.01L34.13 158.57Q34.62 158.57 36.02 158.45Q37.42 158.33 38.27 158.33Q40.83 158.33 43.70 158.76Q46.56 159.18 49.37 160.77Q52.17 162.35 54.73 165.46Q57.29 168.57 59.12 173.81L75.45 220.86L96.30 159.55L101.54 159.55L73.62 241.22L71.19 241.22L53.15 189.90L35.59 241.22L33.16 241.22L9.51 173.81ZM186.25 240Q184.18 240.61 181.38 240.61Q179.31 240.61 176.56 240.12Q173.82 239.63 170.96 237.99Q168.09 236.34 165.35 233.17Q162.61 230.00 160.66 224.76L157.61 216.84L123.48 216.84L113.73 240L108.24 240L142.37 159.55L146.03 159.55L172.85 224.76Q174.31 228.18 175.59 230.55Q176.87 232.93 178.45 234.39Q180.04 235.86 181.87 236.59Q183.69 237.32 186.25 237.56L186.25 240M125.31 211.96L155.17 211.96L140.54 176.62L125.31 211.96ZM251.95 199.77Q251.95 191.12 250.19 184.11Q248.42 177.10 245.13 172.17Q241.84 167.23 237.08 164.61Q232.33 161.99 226.36 161.99Q220.38 161.99 215.63 164.61Q210.88 167.23 207.59 172.17Q204.29 177.10 202.53 184.11Q200.76 191.12 200.76 199.77Q200.76 208.43 202.53 215.44Q204.29 222.45 207.59 227.38Q210.88 232.32 215.63 234.94Q220.38 237.56 226.36 237.56Q232.33 237.56 237.08 234.94Q241.84 232.32 245.13 227.38Q248.42 222.45 250.19 215.44Q251.95 208.43 251.95 199.77M188.57 199.77Q188.57 190.88 191.19 183.08Q193.81 175.27 198.75 169.48Q203.68 163.69 210.69 160.40Q217.70 157.11 226.36 157.11Q235.01 157.11 242.02 160.40Q249.03 163.69 253.97 169.48Q258.90 175.27 261.52 183.08Q264.14 190.88 264.14 199.77Q264.14 208.80 261.52 216.54Q258.90 224.28 253.97 230.07Q249.03 235.86 242.02 239.15Q235.01 242.44 226.36 242.44Q217.70 242.44 210.69 239.15Q203.68 235.86 198.75 230.07Q193.81 224.28 191.19 216.54Q188.57 208.80 188.57 199.77Z" fill="#ED8C2B" style="fill: rgb(237, 140, 43);"></path></g><g id="SvgjsG1137" rel="mainfill" name="slogan_text" xmlns:name="slogan_text" transform="translate(63.8950060904026,-51.615203857421875)" fill="#ED8C2B"><path d="M11.04 229.29L13.61 238.43L13.78 238.43L16.56 228.46L18.95 228.46L15.74 240L12.20 240L9.72 231.18L9.56 231.18L7.09 240L3.54 240L0.33 228.46L2.72 228.46L5.50 238.43L5.67 238.43L8.24 229.29L11.04 229.29ZM25.38 239.18Q26.19 239.18 26.89 238.90Q27.59 238.62 28.26 238.10L28.92 239.09Q28.61 239.37 28.19 239.60Q27.77 239.84 27.28 239.99Q26.80 240.15 26.27 240.24Q25.74 240.33 25.21 240.33Q24.04 240.33 23.08 240.02Q22.12 239.72 21.44 239.13Q20.77 238.55 20.39 237.69Q20.02 236.84 20.02 235.72Q20.02 234.61 20.38 233.75Q20.73 232.88 21.37 232.30Q22.00 231.71 22.87 231.41Q23.75 231.10 24.80 231.10Q25.79 231.10 26.67 231.40Q27.54 231.69 28.18 232.26Q28.82 232.83 29.20 233.64Q29.58 234.45 29.58 235.47L29.58 236.62L22.55 236.62Q22.74 237.99 23.49 238.58Q24.24 239.18 25.38 239.18M24.80 232.17Q24.32 232.17 23.91 232.35Q23.50 232.53 23.20 232.93Q22.89 233.33 22.70 233.95Q22.51 234.58 22.50 235.47L27.11 235.47Q27.11 234.61 26.91 233.98Q26.71 233.36 26.39 232.95Q26.07 232.55 25.65 232.36Q25.23 232.17 24.80 232.17ZM35.84 238.85Q36.40 238.85 36.87 238.67Q37.34 238.50 37.68 238.12Q38.02 237.74 38.21 237.15Q38.40 236.56 38.40 235.72Q38.40 234.87 38.21 234.28Q38.02 233.69 37.68 233.31Q37.34 232.93 36.87 232.76Q36.40 232.58 35.84 232.58L33.78 232.58L33.78 238.85L35.84 238.85M31.48 240L31.48 228.46L33.78 228.46L33.78 231.43L35.84 231.43Q36.98 231.43 37.91 231.73Q38.84 232.02 39.50 232.58Q40.16 233.14 40.52 233.94Q40.87 234.73 40.87 235.72Q40.87 236.70 40.52 237.49Q40.16 238.29 39.50 238.85Q38.84 239.41 37.91 239.70Q36.98 240 35.84 240L31.48 240ZM51.58 235.96L56.69 235.96L54.22 229.86L54.06 229.86L51.58 235.96M56.03 228.46L60.73 240L58.36 240L57.27 237.20L51.01 237.20L49.92 240L47.55 240L52.24 228.46L56.03 228.46ZM68.56 232.58L66.58 232.58Q65.46 232.58 64.87 233.19Q64.27 233.79 64.27 234.97L64.27 240L61.97 240L61.97 234.97Q61.97 233.29 63.03 232.36Q64.09 231.43 66.09 231.43L68.56 231.43L68.56 232.58ZM70.62 232.58L69.05 232.58L69.05 231.43L70.62 231.43L70.62 228.79L72.93 228.79L72.93 231.43L75.48 231.43L75.48 232.58L72.93 232.58L72.93 236.87Q72.93 237.49 73.07 237.93Q73.21 238.37 73.44 238.64Q73.68 238.91 74.00 239.04Q74.31 239.18 74.66 239.18Q75.15 239.18 75.61 239.02Q76.07 238.86 76.39 238.68L76.88 239.75Q76.39 240 75.75 240.16Q75.12 240.33 74.49 240.33Q72.63 240.33 71.62 239.41Q70.62 238.48 70.62 236.87L70.62 232.58ZM90.23 229.29Q89.39 229.29 88.66 229.58Q87.92 229.88 87.38 230.49Q86.83 231.10 86.51 232.03Q86.19 232.96 86.19 234.23Q86.19 235.50 86.51 236.43Q86.83 237.36 87.38 237.97Q87.92 238.58 88.66 238.88Q89.39 239.18 90.23 239.18Q91.07 239.18 91.80 238.88Q92.54 238.58 93.08 237.97Q93.62 237.36 93.95 236.43Q94.27 235.50 94.27 234.23Q94.27 232.96 93.95 232.03Q93.62 231.10 93.08 230.49Q92.54 229.88 91.80 229.58Q91.07 229.29 90.23 229.29M90.23 228.13Q91.71 228.13 92.92 228.53Q94.14 228.93 95.00 229.70Q95.87 230.47 96.34 231.61Q96.82 232.75 96.82 234.23Q96.82 235.72 96.34 236.85Q95.87 237.99 95.00 238.76Q94.14 239.54 92.92 239.93Q91.71 240.33 90.23 240.33Q88.75 240.33 87.53 239.93Q86.31 239.54 85.44 238.76Q84.58 237.99 84.11 236.85Q83.64 235.72 83.64 234.23Q83.64 232.75 84.11 231.61Q84.58 230.47 85.44 229.70Q86.31 228.93 87.53 228.53Q88.75 228.13 90.23 228.13ZM107.86 240L105.56 240L105.56 234.81Q105.56 233.62 104.96 233.10Q104.37 232.58 103.25 232.58L101.11 232.58L101.11 240L98.80 240L98.80 231.43L103.25 231.43Q105.61 231.43 106.73 232.28Q107.86 233.13 107.86 234.81L107.86 240ZM112.40 240L110.09 240L110.09 228.46L112.40 228.46L112.40 240ZM117.09 240L114.79 240L114.79 231.60L117.09 231.60L117.09 240M117.17 229.37Q117.17 229.86 116.84 230.24Q116.50 230.61 115.94 230.61Q115.38 230.61 115.04 230.24Q114.70 229.86 114.70 229.37Q114.70 228.88 115.04 228.51Q115.38 228.13 115.94 228.13Q116.48 228.13 116.83 228.51Q117.17 228.88 117.17 229.37ZM128.55 240L126.24 240L126.24 234.81Q126.24 233.62 125.65 233.10Q125.05 232.58 123.93 232.58L121.79 232.58L121.79 240L119.48 240L119.48 231.43L123.93 231.43Q126.29 231.43 127.42 232.28Q128.55 233.13 128.55 234.81L128.55 240ZM135.72 239.18Q136.52 239.18 137.22 238.90Q137.92 238.62 138.60 238.10L139.26 239.09Q138.95 239.37 138.53 239.60Q138.10 239.84 137.62 239.99Q137.13 240.15 136.61 240.24Q136.08 240.33 135.55 240.33Q134.38 240.33 133.42 240.02Q132.45 239.72 131.78 239.13Q131.10 238.55 130.73 237.69Q130.36 236.84 130.36 235.72Q130.36 234.61 130.71 233.75Q131.07 232.88 131.70 232.30Q132.34 231.71 133.21 231.41Q134.08 231.10 135.14 231.10Q136.13 231.10 137.00 231.40Q137.87 231.69 138.52 232.26Q139.16 232.83 139.54 233.64Q139.92 234.45 139.92 235.47L139.92 236.62L132.88 236.62Q133.08 237.99 133.83 238.58Q134.58 239.18 135.72 239.18M135.14 232.17Q134.66 232.17 134.25 232.35Q133.84 232.53 133.53 232.93Q133.23 233.33 133.04 233.95Q132.85 234.58 132.83 235.47L137.45 235.47Q137.45 234.61 137.25 233.98Q137.05 233.36 136.73 232.95Q136.41 232.55 135.99 232.36Q135.57 232.17 135.14 232.17Z" fill="#ED8C2B" style="fill: rgb(237, 140, 43);"></path></g><g id="SvgjsG1138" rel="mainfill" name="symbol" xmlns:name="symbol_mainfill" transform="translate(74.02000427246094,0) scale(1.2)" fill="#ED8C2B"><path d="M77.959,55.154H11.282C5.061,55.154,0,50.093,0,43.873c0-5.278,3.643-9.721,8.546-10.946c2.188-5.469,7.248-9.386,13.149-10.089C22.317,10.14,32.843,0,45.693,0c9.417,0,17.822,5.536,21.723,13.756c3.203-1.75,6.812-2.682,10.543-2.682c12.153,0,22.041,9.887,22.041,22.04C100,45.267,90.113,55.154,77.959,55.154L77.959,55.154z M11.209,40.372c-1.897,0.039-3.429,1.595-3.429,3.501c0,1.931,1.57,3.501,3.501,3.501h66.678c7.863,0,14.26-6.397,14.26-14.26c0-7.863-6.396-14.259-14.26-14.259c-3.683,0-7.18,1.404-9.847,3.952l-5.096,4.871l-1.404-6.908C60.083,13.243,53.388,7.78,45.693,7.78c-8.958,0-16.247,7.288-16.247,16.246c0,0.728,0.054,1.483,0.159,2.246l0.73,5.287l-5.256-0.923c-0.498-0.087-0.993-0.132-1.474-0.132c-4.002,0-7.479,2.842-8.267,6.757l-0.65,3.227l-3.29-0.106C11.336,40.379,11.272,40.375,11.209,40.372L11.209,40.372z" fill="#ED8C2B" style="fill: rgb(237, 140, 43);"></path></g></svg>