<svg xmlns="http://www.w3.org/2000/svg" version="1.1" xmlns:xlink="http://www.w3.org/1999/xlink" xmlns:svgjs="http://svgjs.com/svgjs" height="193.1790008544922" width="258.7699890136719"><defs id="SvgjsDefs2170"></defs><g id="SvgjsG2171" rel="mainfill" name="main_text" xmlns:name="main_text" transform="translate(-4,-70.91099548339844)" fill="#000000"><path d="M90.05 236.62C99.47 216.34 106.44 195.33 110.84 173.72C111.56 170.34 109.51 168.29 105.41 168.29L94.25 168.29C91.07 187.04 86.46 204.14 80.42 219.41L67.71 172.18C67.00 169.62 64.74 168.29 60.75 168.29L48.76 168.29C45.69 187.96 41.18 204.96 35.14 219.41L21.62 170.65C21.00 168.49 19.46 167.37 16.90 167.37C13.11 167.37 8.81 169.01 4.00 172.39L25.30 240L36.57 240C40.06 240 42.41 238.77 43.54 236.31C49.99 222.38 54.91 207.42 58.29 191.34L71.51 240L83.08 240C87.08 240 88.82 239.08 90.05 236.62ZM139.53 226.48L164.01 226.48L167.49 237.34C168.11 239.08 169.65 240 172.10 240L186.45 240L161.96 172.39C160.63 168.70 159.09 167.57 154.69 167.57C150.49 167.57 146.39 168.39 142.40 170.13L118.32 236.41C117.60 238.46 119.24 240 121.39 240L135.22 240ZM143.62 213.26L151.72 187.96L159.91 213.26ZM252.73 177.00C246.07 170.34 237.57 167.06 227.42 167.06C217.28 167.06 208.78 170.34 202.02 177.00C195.36 183.55 191.98 192.57 191.98 204.14C191.98 215.72 195.36 224.74 202.02 231.39C208.78 237.95 217.28 241.23 227.42 241.23C237.57 241.23 246.07 237.95 252.73 231.39C259.39 224.74 262.77 215.72 262.77 204.14C262.77 192.57 259.39 183.55 252.73 177.00ZM227.94 227.30C222.61 227.30 218.10 225.15 214.52 220.74C210.93 216.34 209.09 210.60 209.09 203.33C209.09 188.68 216.67 180.99 226.81 180.99C232.14 180.99 236.64 183.14 240.23 187.55C243.81 191.95 245.66 197.69 245.66 204.96C245.66 219.61 238.08 227.30 227.94 227.30Z" fill="#000000" style="fill: rgb(0, 0, 0);"></path></g><g id="SvgjsG2172" rel="mainfill" name="slogan_text" xmlns:name="slogan_text" transform="translate(59.54499235749245,-47.1510009765625)" fill="#000000"><path d="M2.94 228.80L5.18 236.17L7.47 228.80L9.59 228.80L11.83 236.17L14.12 228.80L16.73 228.80L16.73 229.47L12.89 240L10.83 240L8.49 232.76L6.23 240L4.18 240L0.33 229.47L0.33 228.80L2.94 228.80ZM22.85 240.33Q21.44 240.33 20.52 240.01Q19.60 239.68 19.05 239.11Q18.50 238.55 18.28 237.79Q18.07 237.03 18.07 236.16L18.07 235.49Q18.07 234.62 18.28 233.86Q18.50 233.10 19.05 232.53Q19.60 231.96 20.52 231.64Q21.44 231.31 22.85 231.31L23.31 231.31Q24.73 231.31 25.64 231.52Q26.54 231.73 27.04 232.10Q27.54 232.46 27.73 232.95Q27.91 233.43 27.91 233.98L27.91 234.15Q27.91 234.65 27.78 235.10Q27.66 235.55 27.19 235.91Q26.72 236.26 25.81 236.46Q24.90 236.66 23.33 236.66Q22.58 236.66 21.94 236.59Q21.31 236.52 20.74 236.36Q20.76 236.71 20.86 237.00Q20.96 237.29 21.23 237.49Q21.51 237.69 22.01 237.80Q22.51 237.91 23.35 237.91Q23.75 237.91 24.24 237.88Q24.73 237.84 25.26 237.79Q25.79 237.73 26.30 237.64Q26.81 237.54 27.24 237.41L27.24 239.92Q26.81 240.02 26.30 240.09Q25.79 240.17 25.24 240.23Q24.70 240.28 24.17 240.31Q23.63 240.33 23.16 240.33L22.85 240.33M23.33 233.40Q22.66 233.40 22.21 233.47Q21.76 233.55 21.48 233.70Q21.19 233.85 21.04 234.07Q20.89 234.28 20.82 234.57Q21.31 234.70 21.87 234.76Q22.43 234.82 23.16 234.82Q23.90 234.82 24.32 234.76Q24.73 234.70 24.93 234.61Q25.14 234.52 25.19 234.41Q25.24 234.30 25.24 234.18Q25.24 234.07 25.19 233.93Q25.15 233.78 24.96 233.67Q24.77 233.55 24.38 233.47Q24.00 233.40 23.33 233.40ZM32.59 231.69Q33.17 231.51 33.81 231.41Q34.44 231.31 35.20 231.31Q36.60 231.31 37.52 231.64Q38.44 231.96 38.99 232.53Q39.54 233.10 39.76 233.86Q39.98 234.62 39.98 235.49L39.98 236.16Q39.98 237.03 39.76 237.79Q39.54 238.55 38.99 239.11Q38.44 239.68 37.51 240.01Q36.58 240.33 35.16 240.33L34.69 240.33Q33.29 240.33 32.37 240.01Q31.45 239.68 30.90 239.11Q30.35 238.55 30.13 237.79Q29.92 237.03 29.92 236.16L29.92 227.47L30.58 227.47L32.59 228.64L32.59 231.69M35.05 233.73Q34.34 233.73 33.74 233.82Q33.14 233.92 32.59 234.10L32.59 235.82Q32.59 236.22 32.62 236.61Q32.66 236.99 32.88 237.28Q33.11 237.56 33.58 237.74Q34.04 237.91 34.93 237.91Q35.81 237.91 36.30 237.74Q36.78 237.56 37.01 237.28Q37.24 236.99 37.27 236.61Q37.30 236.22 37.30 235.82Q37.30 235.42 37.27 235.04Q37.24 234.65 37.02 234.37Q36.80 234.08 36.35 233.91Q35.90 233.73 35.05 233.73ZM45.66 240L45.66 239.33L50.64 228.80L53.65 228.80L58.63 239.33L58.63 240L55.92 240L54.95 237.83L49.32 237.83L48.37 240L45.66 240M53.85 235.32L52.14 231.49L50.44 235.32L53.85 235.32ZM66.65 233.95Q65.88 233.82 65.09 233.82Q63.74 233.82 62.64 234.17L62.64 240L59.96 240L59.96 231.64L60.63 231.64L61.54 232.18Q62.34 231.74 63.24 231.53Q64.14 231.31 65.25 231.31Q65.63 231.31 65.98 231.34Q66.33 231.38 66.65 231.43L66.65 233.95ZM70.83 231.64L73.40 231.64L73.40 233.98L70.83 233.98L70.83 236.66Q70.83 236.94 70.86 237.16Q70.89 237.38 71.04 237.53Q71.19 237.68 71.51 237.75Q71.83 237.83 72.40 237.83Q72.78 237.83 73.20 237.79Q73.62 237.74 73.95 237.64L73.95 240.08Q73.62 240.17 73.18 240.21Q72.75 240.25 72.28 240.25Q71.14 240.25 70.36 240.03Q69.57 239.82 69.09 239.41Q68.60 239.00 68.38 238.39Q68.15 237.78 68.15 236.99L68.15 228.30L68.82 228.30L70.83 229.47L70.83 231.64ZM80.14 233.97Q80.14 232.83 80.42 231.83Q80.70 230.82 81.41 230.08Q82.12 229.34 83.33 228.90Q84.53 228.47 86.35 228.47L86.95 228.47Q88.78 228.47 89.98 228.90Q91.18 229.34 91.89 230.08Q92.60 230.82 92.89 231.83Q93.17 232.83 93.17 233.97L93.17 234.84Q93.17 235.97 92.89 236.98Q92.60 237.98 91.89 238.72Q91.18 239.47 89.98 239.90Q88.78 240.33 86.95 240.33L86.35 240.33Q84.53 240.33 83.33 239.90Q82.12 239.47 81.41 238.72Q80.70 237.98 80.42 236.98Q80.14 235.97 80.14 234.84L80.14 233.97M83.14 234.40Q83.14 235.04 83.20 235.63Q83.26 236.22 83.59 236.67Q83.91 237.13 84.62 237.39Q85.33 237.66 86.65 237.66Q87.97 237.66 88.68 237.39Q89.39 237.13 89.72 236.67Q90.05 236.22 90.11 235.63Q90.16 235.04 90.16 234.40Q90.16 233.77 90.11 233.18Q90.05 232.60 89.72 232.15Q89.39 231.69 88.68 231.43Q87.97 231.16 86.65 231.16Q85.33 231.16 84.62 231.43Q83.91 231.69 83.59 232.15Q83.26 232.60 83.20 233.18Q83.14 233.77 83.14 234.40ZM95.93 231.64L96.83 232.18Q97.63 231.74 98.54 231.53Q99.44 231.31 100.54 231.31Q101.95 231.31 102.86 231.64Q103.78 231.96 104.34 232.53Q104.89 233.10 105.10 233.86Q105.32 234.62 105.32 235.49L105.32 240L102.65 240L102.65 235.82Q102.65 235.42 102.61 235.04Q102.58 234.65 102.36 234.37Q102.15 234.08 101.70 233.91Q101.24 233.73 100.39 233.73Q99.69 233.73 99.09 233.82Q98.49 233.92 97.93 234.10L97.93 240L95.26 240L95.26 231.64L95.93 231.64ZM108.16 227.47L110.17 228.64L110.17 240L107.49 240L107.49 227.47L108.16 227.47ZM112.51 231.64L112.51 240L115.18 240L115.18 232.81L113.18 231.64L112.51 231.64M112.34 228.72Q112.34 228.20 112.64 227.83Q112.94 227.47 113.78 227.47L113.91 227.47Q114.75 227.47 115.05 227.83Q115.35 228.20 115.35 228.72L115.35 228.92Q115.35 229.44 115.05 229.81Q114.75 230.17 113.91 230.17L113.78 230.17Q112.94 230.17 112.64 229.81Q112.34 229.44 112.34 228.92L112.34 228.72ZM118.11 231.64L119.01 232.18Q119.81 231.74 120.71 231.53Q121.62 231.31 122.72 231.31Q124.12 231.31 125.04 231.64Q125.96 231.96 126.51 232.53Q127.06 233.10 127.28 233.86Q127.50 234.62 127.50 235.49L127.50 240L124.83 240L124.83 235.82Q124.83 235.42 124.79 235.04Q124.76 234.65 124.54 234.37Q124.32 234.08 123.87 233.91Q123.42 233.73 122.57 233.73Q121.87 233.73 121.27 233.82Q120.66 233.92 120.11 234.10L120.11 240L117.44 240L117.44 231.64L118.11 231.64ZM134.28 240.33Q132.88 240.33 131.96 240.01Q131.04 239.68 130.49 239.11Q129.94 238.55 129.72 237.79Q129.50 237.03 129.50 236.16L129.50 235.49Q129.50 234.62 129.72 233.86Q129.94 233.10 130.49 232.53Q131.04 231.96 131.96 231.64Q132.88 231.31 134.28 231.31L134.75 231.31Q136.17 231.31 137.08 231.52Q137.98 231.73 138.48 232.10Q138.98 232.46 139.16 232.95Q139.35 233.43 139.35 233.98L139.35 234.15Q139.35 234.65 139.22 235.10Q139.10 235.55 138.63 235.91Q138.16 236.26 137.25 236.46Q136.34 236.66 134.77 236.66Q134.02 236.66 133.38 236.59Q132.75 236.52 132.18 236.36Q132.20 236.71 132.30 237.00Q132.40 237.29 132.67 237.49Q132.95 237.69 133.45 237.80Q133.95 237.91 134.79 237.91Q135.19 237.91 135.68 237.88Q136.17 237.84 136.70 237.79Q137.23 237.73 137.74 237.64Q138.25 237.54 138.68 237.41L138.68 239.92Q138.25 240.02 137.74 240.09Q137.23 240.17 136.68 240.23Q136.14 240.28 135.60 240.31Q135.07 240.33 134.60 240.33L134.28 240.33M134.77 233.40Q134.10 233.40 133.65 233.47Q133.20 233.55 132.91 233.70Q132.63 233.85 132.48 234.07Q132.33 234.28 132.26 234.57Q132.75 234.70 133.31 234.76Q133.87 234.82 134.60 234.82Q135.34 234.82 135.76 234.76Q136.17 234.70 136.37 234.61Q136.57 234.52 136.62 234.41Q136.67 234.30 136.67 234.18Q136.67 234.07 136.63 233.93Q136.59 233.78 136.40 233.67Q136.21 233.55 135.82 233.47Q135.44 233.40 134.77 233.40Z" fill="#000000" style="fill: rgb(0, 0, 0);"></path></g><g id="SvgjsG2173" rel="mainfill" name="symbol" xmlns:name="symbol_mainfill" transform="translate(79.38649082183838,-9.78499984741211) scale(1)" fill="#000000"><path d="M79.29,60.515c-0.612,0-1.213,0.047-1.806,0.117c-4.242-2.485-8.136-6.303-11.011-11.248  c-2.9-4.987-4.29-10.308-4.329-15.259c1.916-2.545,3.065-5.7,3.065-9.131c0-8.4-6.81-15.209-15.21-15.209s-15.21,6.809-15.21,15.209  c0,3.342,1.091,6.422,2.917,8.932c-0.002,5.007-1.391,10.404-4.329,15.458c-2.868,4.932-6.747,8.742-10.976,11.228  c-0.556-0.062-1.118-0.099-1.69-0.099c-8.4,0-15.21,6.809-15.21,15.208c0,8.4,6.81,15.213,15.21,15.213  c6.165,0,11.46-3.677,13.848-8.951c4.316-2.507,9.649-4.012,15.459-4.012c5.786,0,11.099,1.495,15.405,3.983  c2.382,5.29,7.688,8.979,13.865,8.979c8.4,0,15.208-6.811,15.208-15.211C94.498,67.323,87.69,60.515,79.29,60.515z M34.523,69.385  c-0.436-0.947-0.965-1.84-1.578-2.67c0.076-4.896,1.473-10.142,4.334-15.062c2.981-5.125,7.058-9.038,11.481-11.511  c0.41,0.033,0.821,0.063,1.239,0.063c0.372,0,0.736-0.029,1.102-0.056c4.419,2.474,8.492,6.383,11.469,11.504  c2.902,4.988,4.294,10.311,4.333,15.265c-0.557,0.782-1.04,1.618-1.442,2.5c-4.313,2.501-9.64,4.004-15.441,4.004  C44.192,73.422,38.846,71.905,34.523,69.385z" fill="#000000" style="fill: rgb(0, 0, 0);"></path></g></svg>