<svg xmlns="http://www.w3.org/2000/svg" version="1.1" xmlns:xlink="http://www.w3.org/1999/xlink" xmlns:svgjs="http://svgjs.com/svgjs" height="169.6632080078125" width="253.4199981689453"><defs id="SvgjsDefs2253"></defs><g id="SvgjsG2254" rel="mainfill" name="main_text" xmlns:name="main_text" transform="translate(-3.2300000190734863,-97.87680053710938)" fill="#000000"><path d="M81.83 240L66.91 240L52.46 180.55L37.89 240L23.09 240L3.23 158.70L16.86 158.70L30.90 218.09L45.35 158.70L59.68 158.70L74.37 218.44L88.64 158.70L102.16 158.70L81.83 240ZM107.68 240L134.99 158.70L152.79 158.70L180.23 240L166.01 240L159.78 221.26L127.53 221.26L121.36 240L107.68 240M131.47 208.98L155.67 208.98L143.63 172.39L131.47 208.98ZM256.65 199.35Q256.65 209.34 254.74 217.18Q252.83 225.02 248.69 230.48Q244.55 235.95 238.09 238.83Q231.63 241.70 222.58 241.70Q213.53 241.70 207.10 238.83Q200.67 235.95 196.53 230.48Q192.39 225.02 190.45 217.18Q188.51 209.34 188.51 199.35Q188.51 189.36 190.45 181.49Q192.39 173.62 196.53 168.19Q200.67 162.75 207.10 159.87Q213.53 157.00 222.58 157.00Q231.63 157.00 238.09 159.84Q244.55 162.69 248.69 168.13Q252.83 173.56 254.74 181.43Q256.65 189.30 256.65 199.35M242.32 199.35Q242.32 191.77 241.26 186.10Q240.20 180.43 237.85 176.67Q235.50 172.91 231.74 171.03Q227.98 169.15 222.58 169.15Q217.12 169.15 213.33 171.03Q209.54 172.91 207.19 176.67Q204.84 180.43 203.78 186.10Q202.72 191.77 202.72 199.35Q202.72 206.93 203.78 212.60Q204.84 218.26 207.22 222.02Q209.60 225.78 213.39 227.66Q217.18 229.54 222.58 229.54Q227.98 229.54 231.74 227.69Q235.50 225.84 237.85 222.08Q240.20 218.32 241.26 212.65Q242.32 206.99 242.32 199.35Z" fill="#000000" style="fill: rgb(0, 0, 0);"></path></g><g id="SvgjsG2255" rel="mainfill" name="slogan_text" xmlns:name="slogan_text" transform="translate(56.69999694824219,-70.60679626464844)" fill="#000000"><path d="M19.71 226.32L17.15 226.32L13.97 234.90L13.54 236.52L13.25 234.90L10.24 226.32L7.31 226.32L8.81 230.35L7.01 234.90L6.58 236.52L6.29 234.90L3.28 226.32L0 226.32L1.33 228.86L5.41 239.86L7.27 240.27L9.98 233.49L12.37 239.86L14.24 240.27ZM25.32 229.35C21.90 229.35 20.44 232.09 20.44 235.08C20.44 237.73 22.06 240.27 25.12 240.27C27.78 240.27 29.42 238.81 29.42 238.81L29.05 236.72C29.05 236.72 27.39 238.18 25.61 238.18C23.99 238.18 23.15 236.87 23.05 235.21L28.72 235.21L29.21 234.71C29.17 233.18 28.91 229.35 25.32 229.35ZM25.07 231.09C26.16 231.09 26.51 232.42 26.57 233.40L23.15 233.40C23.37 232.11 23.95 231.09 25.07 231.09ZM31.26 224.74L31.55 226.81L31.55 238.48C32.00 239.43 33.56 240.27 35.28 240.27C38.47 240.27 40.68 237.64 40.68 234.59C40.68 231.09 38.51 229.35 36.34 229.35C35.07 229.35 34.09 230.11 34.09 230.11L34.09 224.43ZM34.09 231.81C34.09 231.81 34.76 231.31 35.60 231.31C36.89 231.31 37.96 232.73 37.96 234.78C37.96 236.82 36.89 238.42 35.60 238.42C35.01 238.42 34.46 238.20 34.09 237.85ZM46.30 240L48.76 240L49.96 236.82L54.49 236.82L55.66 240L58.63 240L57.48 237.46L53.30 226.05L51.56 226.48ZM52.10 230.76L52.30 229.94L52.48 230.74L53.90 234.71L50.62 234.71ZM67.32 230.11C66.82 229.59 66.25 229.35 65.62 229.35C63.83 229.35 62.83 231.25 62.83 231.25L62.83 229.39L60.00 229.70L60.29 231.76L60.29 240L63.06 240L62.83 238.24L62.83 234.71C62.83 233.12 64.10 231.81 65.17 231.81C65.94 231.81 66.54 232.36 66.54 232.36ZM71.82 227.52L69.08 227.83L69.08 229.65L67.83 229.65L67.83 231.56L69.08 231.56L69.08 236.95C69.08 239.34 69.96 240.27 71.70 240.27C73.93 240.27 75.08 239.22 75.08 239.22L74.81 236.99C74.34 237.40 73.22 237.95 72.46 237.95C71.97 237.95 71.60 237.75 71.60 237.01L71.60 231.56L74.02 231.56L74.67 229.65L71.62 229.65ZM87.39 226.11C83.66 226.11 80.84 229.22 80.84 233.30C80.84 237.21 83.11 240.27 87.13 240.27C90.85 240.27 93.72 237.15 93.72 233.06C93.72 229.00 91.61 226.11 87.39 226.11ZM83.66 233.18C83.66 230.25 85.12 228.08 87.29 228.08C89.46 228.08 90.90 230.25 90.90 233.18C90.90 236.11 89.46 238.28 87.29 238.28C85.12 238.28 83.66 236.11 83.66 233.18ZM105.11 240L104.89 238.28L104.89 231.97C104.89 230.19 103.35 229.35 101.79 229.35C100.67 229.35 99.44 229.80 98.54 230.62L98.54 229.37L95.71 229.68L96.00 231.74L96.00 240L98.76 240L98.54 238.24L98.54 232.65C98.54 232.65 99.54 231.48 101.10 231.48C102.14 231.48 102.35 232.09 102.35 234.02L102.35 240ZM110.68 224.43L107.86 224.74L108.14 226.81L108.14 240L110.91 240L110.68 238.24ZM116.50 229.35L113.68 229.65L113.96 231.72L113.96 240L116.73 240L116.50 238.24ZM113.76 226.62C113.76 227.38 114.41 228.00 115.19 228.00C115.93 228.00 116.56 227.38 116.56 226.62C116.56 225.82 115.93 225.19 115.19 225.19C114.41 225.19 113.76 225.82 113.76 226.62ZM128.94 240L128.71 238.28L128.71 231.97C128.71 230.19 127.18 229.35 125.62 229.35C124.49 229.35 123.26 229.80 122.36 230.62L122.36 229.37L119.53 229.68L119.82 231.74L119.82 240L122.59 240L122.36 238.24L122.36 232.65C122.36 232.65 123.37 231.48 124.92 231.48C125.97 231.48 126.17 232.09 126.17 234.02L126.17 240ZM135.92 229.35C132.50 229.35 131.05 232.09 131.05 235.08C131.05 237.73 132.67 240.27 135.72 240.27C138.38 240.27 140.02 238.81 140.02 238.81L139.65 236.72C139.65 236.72 137.99 238.18 136.21 238.18C134.59 238.18 133.75 236.87 133.65 235.21L139.32 235.21L139.82 234.71C139.77 233.18 139.51 229.35 135.92 229.35ZM135.68 231.09C136.76 231.09 137.11 232.42 137.17 233.40L133.75 233.40C133.98 232.11 134.55 231.09 135.68 231.09Z" fill="#000000" style="fill: rgb(0, 0, 0);"></path></g><g id="SvgjsG2256" rel="mainfill" name="symbol" xmlns:name="symbol_mainfill" transform="translate(86.70999908447266,0) scale(0.8)" fill="#FD7400"><path d="M77.959,55.154H11.282C5.061,55.154,0,50.093,0,43.873c0-5.278,3.643-9.721,8.546-10.946c2.188-5.469,7.248-9.386,13.149-10.089C22.317,10.14,32.843,0,45.693,0c9.417,0,17.822,5.536,21.723,13.756c3.203-1.75,6.812-2.682,10.543-2.682c12.153,0,22.041,9.887,22.041,22.04C100,45.267,90.113,55.154,77.959,55.154L77.959,55.154z M11.209,40.372c-1.897,0.039-3.429,1.595-3.429,3.501c0,1.931,1.57,3.501,3.501,3.501h66.678c7.863,0,14.26-6.397,14.26-14.26c0-7.863-6.396-14.259-14.26-14.259c-3.683,0-7.18,1.404-9.847,3.952l-5.096,4.871l-1.404-6.908C60.083,13.243,53.388,7.78,45.693,7.78c-8.958,0-16.247,7.288-16.247,16.246c0,0.728,0.054,1.483,0.159,2.246l0.73,5.287l-5.256-0.923c-0.498-0.087-0.993-0.132-1.474-0.132c-4.002,0-7.479,2.842-8.267,6.757l-0.65,3.227l-3.29-0.106C11.336,40.379,11.272,40.375,11.209,40.372L11.209,40.372z" fill="#FD7400" style="fill: rgb(253, 116, 0);"></path></g></svg>
