<svg xmlns="http://www.w3.org/2000/svg" version="1.1" xmlns:xlink="http://www.w3.org/1999/xlink" xmlns:svgjs="http://svgjs.com/svgjs" height="277.97000579833986" width="280.62999420166017"><defs id="SvgjsDefs2477"></defs><g id="SvgjsG2478" rel="mainfill" name="main_text" xmlns:name="main_text" transform="translate(50.79999461174012,-73.39229354858398)" fill="#ffffff"><path d="M72.04 168.45C71.26 170.01 70.68 171.27 69.90 172.93C69.61 172.15 69.12 171.76 69.41 170.30L70.58 167.57C71.07 166.50 71.55 165.72 71.65 164.94C71.94 163.19 71.16 164.75 70.09 165.33C69.02 166.01 68.53 165.14 67.66 164.75C66.88 164.26 66.00 163.48 65.22 162.80C64.35 162.02 63.37 161.63 62.40 161.73L62.21 161.83C59.58 166.99 57.34 172.24 55.39 177.70C53.15 183.15 51.50 188.60 50.04 194.15C48.58 199.60 47.41 205.25 46.34 210.70L44.20 202.81C43.52 200.57 43.13 198.53 42.44 196.48C41.96 194.25 41.57 192.20 41.28 190.25L40.50 186.26C40.40 185.00 40.69 183.34 40.21 182.37C40.11 183.44 39.91 184.32 39.91 185.19C39.82 186.17 39.82 187.24 39.91 188.40C39.62 188.11 39.23 188.11 38.94 187.82L40.21 179.94C39.52 180.23 38.75 179.45 37.97 179.84C36.90 180.52 36.02 181.20 34.95 180.91C34.46 180.62 34.07 179.64 33.68 179.25C33.20 178.86 32.51 179.06 31.74 179.06C31.64 179.06 30.37 179.35 29.30 179.64C28.23 179.74 28.43 178.67 27.45 178.18C26.97 181.59 26.67 184.51 25.99 187.92C25.21 192.59 23.95 197.26 22.68 202.03C21.90 204.66 21.22 207.00 20.54 209.63C20.05 207.68 19.57 205.73 19.18 203.79C17.72 198.82 16.45 194.15 15.67 189.18C15.38 187.53 15.09 186.07 14.70 184.61C14.41 183.15 14.31 181.10 14.02 180.03L13.82 181.40C13.63 182.47 14.12 185.68 14.21 187.14C13.53 186.75 12.95 186.65 12.46 185.48C12.17 184.80 12.27 184.02 11.97 183.15C11.97 182.17 11.88 181.40 11.68 180.81C11.00 179.35 10.90 180.91 10.51 181.69C9.83 182.76 8.96 182.27 8.18 182.37C7.11 182.66 6.04 182.27 4.96 182.17C3.80 182.08 2.82 182.27 1.95 182.76L1.95 182.86C3.12 192.69 4.96 202.33 7.59 211.57L12.27 228.12C13.92 234.65 15.19 240.88 16.26 247.20C16.94 246.72 17.52 247.20 18.20 246.72C19.28 246.04 19.86 244.87 21.03 244.96C21.51 245.06 22.10 245.84 22.49 246.13C23.27 246.43 23.75 246.23 24.43 245.94C24.73 245.84 25.70 244.96 26.58 244.67C27.65 244.19 27.55 245.45 28.82 245.45L28.33 241.56C28.33 237.37 28.91 233.19 29.69 228.80C30.47 224.23 32.42 209.53 32.90 207.97C34.36 212.26 36.21 220.82 37.77 225.11L40.79 233.48C41.67 236.20 42.64 239.03 43.42 241.75C44.10 241.27 44.98 241.56 45.46 240.88C46.24 240.10 46.83 239.03 47.90 238.93C48.58 238.93 48.97 239.51 49.65 239.61L49.94 239.61C50.62 240 51.01 239.81 51.69 239.71C51.98 239.61 53.06 238.93 54.13 238.64C55.20 238.35 54.81 239.81 56.07 240.19C56.17 236.01 56.46 232.21 56.76 228.03C57.14 222.09 58.22 216.44 59.38 210.60C60.65 204.37 62.21 198.53 64.06 192.59C65.91 186.85 67.56 181.30 69.80 175.85C70.58 174.00 71.16 172.24 71.84 170.59L74.08 165.43C73.50 165.92 72.72 166.99 72.04 168.45ZM115.26 225.69C114.58 224.72 113.90 223.74 113.32 222.67L113.22 222.38C113.22 221.99 114.00 221.41 114.00 220.92C114.09 220.82 114.09 220.53 114.00 220.14C113.90 219.65 113.90 219.36 113.80 219.17C113.80 219.07 113.12 218.10 112.73 217.12C112.54 216.93 112.44 216.64 112.34 216.25C112.24 215.57 112.93 216.05 113.32 215.08L110.01 215.66L108.84 212.74C108.16 211.18 107.57 209.43 107.08 207.58L105.04 200.87C103.58 196.48 102.61 192.10 101.54 187.53C100.85 184.41 99.88 181.98 99.20 178.96C98.71 180.42 99.39 182.95 100.08 185.58C99.39 185.29 98.71 185.29 98.23 184.22L97.06 179.94C96.96 179.55 96.77 179.35 96.57 179.35C96.28 179.35 96.38 180.42 96.08 180.81C95.69 181.88 94.62 181.59 93.85 181.88L91.02 181.98C91.02 180.91 91.02 180.32 90.92 179.55C90.83 179.16 90.63 178.96 90.54 178.96C90.24 178.96 90.15 180.13 89.66 180.52C89.37 180.81 89.08 181.01 88.59 181.01L87.32 180.91C86.45 180.91 85.57 180.71 84.50 180.42C83.82 180.32 83.53 180.23 83.04 180.23C82.55 180.23 82.07 180.32 81.58 180.52C81.48 185.09 81.09 189.18 80.41 193.76C79.73 197.75 78.95 201.74 78.17 205.93L77.98 207.10C76.91 212.64 75.64 218.19 74.57 224.03C73.89 227.44 73.50 230.75 73.01 234.16C72.53 237.57 72.14 240.88 72.04 244.67C72.23 244.28 75.35 243.21 76.42 243.21L76.91 243.31C77.39 243.60 77.49 244.28 78.17 244.77C78.37 244.87 78.66 244.96 78.95 244.96C79.44 244.96 79.73 244.96 79.92 244.87C80.22 244.87 81.19 244.28 82.26 243.99L82.94 243.89C83.62 243.89 83.43 244.67 84.01 245.16C84.31 241.95 84.50 238.73 84.89 235.33L85.18 232.99L103.39 229.19L105.62 232.60C107.47 235.62 109.62 238.35 112.34 240.68C112.54 240.39 112.54 240.29 112.83 240C113.32 239.71 113.51 239.42 113.61 239.03C113.61 238.54 113.70 238.05 113.80 237.37C113.90 236.88 114.09 236.50 114.48 236.11C114.58 236.01 114.68 236.01 114.97 236.01L116.04 236.11C117.11 236.11 117.31 235.23 117.60 234.94C117.60 234.65 117.70 234.35 117.89 234.06C117.99 233.67 118.38 233.09 118.67 232.60C119.06 232.11 119.16 231.92 119.55 231.82C119.64 231.73 119.74 231.73 120.03 231.73C120.13 231.73 120.42 231.82 120.71 232.02C118.86 230.17 117.01 228.12 115.26 225.69ZM87.61 220.04L88.88 214.20C89.66 211.09 89.66 207.10 90.24 204.08L91.90 195.32C92.68 198.33 93.36 205.34 94.43 208.36C94.92 210.21 95.60 211.96 96.28 213.91L98.13 218.19C97.06 218.39 95.99 218.58 94.92 218.88C92.39 219.36 90.05 219.65 87.61 220.04ZM138.92 184.61L138.43 184.90C136.10 186.75 134.05 189.18 132.40 191.42C130.84 194.05 129.48 196.48 128.40 199.11C127.43 201.74 126.65 204.47 126.07 207.29C125.78 209.53 125.58 211.57 125.58 213.81L125.68 215.76C125.78 218.78 126.26 221.60 127.14 224.42C127.63 225.98 128.11 227.25 128.89 228.71C129.67 230.17 130.55 231.73 131.62 232.89C132.69 234.16 133.76 235.42 135.22 236.59C136.78 237.66 138.33 238.35 139.79 239.03C141.64 239.71 143.10 240.29 144.76 240.39L145.34 240.39L145.64 240.49C146.61 240.68 147.49 240.78 148.36 240.78C148.95 240.78 149.33 240.78 149.63 240.68C151.67 240.58 153.52 240.29 155.27 239.81L156.64 239.51L157.71 239.12C158.88 238.83 159.75 238.35 160.82 237.86C162.67 236.88 164.42 235.81 165.88 234.55C167.34 233.28 168.71 231.82 169.78 230.27C172.21 227.15 173.67 224.13 174.94 220.53C176.11 217.32 176.69 213.72 176.98 210.21L177.08 207.68C177.08 206.51 176.98 205.25 176.88 204.08C176.69 201.84 176.30 199.79 175.72 197.75L175.42 196.87C174.94 195.22 173.96 193.37 173.19 191.71C172.11 189.67 170.75 187.72 169.29 186.07C168.42 185.19 167.64 184.61 166.57 183.83L165.20 182.56L163.65 181.78C162.57 181.10 161.31 180.32 159.85 180.03C158.78 179.74 157.51 179.45 156.25 179.45L152.16 179.45L148.95 180.23C147.10 180.71 145.64 180.91 144.47 181.20C144.66 181.30 144.76 181.49 144.76 181.59L144.86 182.56C144.86 182.95 144.95 183.15 145.15 183.24L147.29 184.32C147.78 184.51 148.17 184.80 148.26 185.09L148.26 185.78C148.26 186.07 147.68 186.26 147.19 186.55C146.51 187.04 146.12 187.24 145.83 187.53C145.73 187.63 145.64 187.92 145.64 188.21L145.64 188.60C145.93 188.89 146.02 189.09 146.12 189.38C146.12 189.57 146.51 189.86 147.29 190.16C147.97 190.64 148.36 190.84 148.75 191.52C148.85 191.62 149.04 191.81 149.14 192.10C149.14 192.49 149.14 192.69 149.04 192.79C149.04 193.08 147.97 193.56 149.63 193.47L151.96 192.79C152.84 192.59 153.52 192.49 154.10 192.49C154.79 192.40 155.08 192.30 155.47 192.30L156.44 192.40L157.71 192.98L158.29 193.47C158.58 193.56 158.78 193.76 159.07 194.05L160.34 195.32C161.41 196.78 162.48 198.24 163.16 200.09L163.35 200.77C163.84 202.52 164.13 204.27 164.23 206.02L164.23 207.49C164.23 211.28 163.55 214.98 162.09 218.39C161.02 220.63 159.95 222.09 158.68 223.55C158.00 224.23 157.32 224.81 156.44 225.30C155.76 225.88 155.08 226.27 154.20 226.47L153.91 226.66C153.23 226.76 153.13 226.86 152.84 226.86C152.35 227.15 151.96 227.25 151.28 227.34C150.21 227.44 149.33 227.34 148.46 227.64C147.39 227.54 146.61 227.44 145.83 227.15C145.15 227.05 144.47 226.76 143.88 226.37C143.20 226.08 142.81 225.59 142.33 225.11C141.84 224.62 141.25 224.03 140.77 223.16C140.09 222.28 139.89 221.21 139.50 220.04C139.21 219.36 139.02 218.68 138.92 217.90C138.63 216.64 138.53 215.37 138.53 213.91C138.53 213.23 138.53 212.45 138.63 211.77C138.92 209.53 139.02 207.39 139.70 205.34C140.57 202.71 141.74 200.28 143.20 198.04C144.76 195.80 146.41 193.95 148.46 192.98C147.29 192.69 145.54 194.44 143.88 196.10C143.40 196.87 142.81 197.56 142.13 198.33C141.45 199.21 140.77 200.18 140.28 201.25C140.18 200.77 140.09 200.28 140.09 199.89L140.09 199.50C140.09 198.82 140.28 198.24 140.57 197.65C141.06 196.48 141.94 195.32 143.20 194.25C143.88 193.76 144.37 193.17 144.86 192.69C145.54 192.30 145.93 191.91 146.22 191.42C146.90 190.94 147.00 190.84 147.00 190.55C147.00 190.45 146.90 190.45 146.71 190.45C146.02 190.45 144.66 191.23 144.37 191.33C144.08 191.33 143.88 191.42 143.59 191.42C143.30 191.42 143.01 191.33 142.71 191.03L142.23 189.86C141.84 189.48 141.64 188.89 141.55 188.50L141.06 186.85L140.96 186.07C140.87 185.68 140.67 185.39 140.48 185.29C140.18 184.80 139.70 184.61 138.92 184.61Z" fill="#ffffff" style="fill: rgb(255, 255, 255);"></path></g><g id="SvgjsG2479" rel="mainfill" name="slogan_text" xmlns:name="slogan_text" transform="translate(69.62755268216134,-42.62228927612304)" fill="#ffffff"><path d="M18.26 224.74L18.22 224.72C17.88 224.60 17.50 224.76 17.38 225.10L14.84 231.92C14.84 231.92 13.37 236.26 13.18 236.75C12.78 237.86 12.76 237.61 12.49 236.83C12.32 236.41 11.06 232.86 10.49 231.29C10.22 230.58 10.18 230.66 10.45 229.95C10.60 229.59 12.09 225.58 12.09 225.58C12.21 225.25 12.05 224.87 11.71 224.74L11.65 224.72C11.31 224.60 10.93 224.76 10.81 225.10C10.81 225.10 9.99 227.58 9.82 228.04C9.63 228.54 9.55 229.00 9.19 228.04C9.00 227.51 8.18 225.10 8.18 225.10C8.06 224.76 7.70 224.60 7.37 224.72L7.30 224.74C6.97 224.87 6.80 225.25 6.93 225.58C6.93 225.58 8.44 229.63 8.58 230.03C8.81 230.64 8.75 230.64 8.54 231.27C8.00 232.80 6.76 236.37 6.61 236.75C6.21 237.86 6.21 237.61 5.92 236.83C5.71 236.31 4.18 231.92 4.18 231.92L1.64 225.10C1.51 224.76 1.13 224.60 0.80 224.72L0.73 224.74C0.40 224.87 0.23 225.25 0.36 225.58L5.58 239.58C5.67 239.85 5.94 240 6.23 240C6.51 240 6.78 239.85 6.86 239.58C6.86 239.58 9.17 233.22 9.30 232.93C9.51 232.36 9.55 232.51 9.70 232.89C9.82 233.20 12.13 239.58 12.13 239.58C12.24 239.85 12.51 240 12.78 240C13.05 240 13.33 239.85 13.43 239.58L18.66 225.58C18.78 225.25 18.59 224.87 18.26 224.74ZM30.07 233.91C29.93 232.86 29.49 231.96 28.75 231.23C27.70 230.18 26.46 229.70 24.99 229.70C23.53 229.70 22.29 230.18 21.24 231.23C20.21 232.26 19.69 233.49 19.69 234.96C19.69 236.43 20.21 237.67 21.24 238.72C22.29 239.75 23.53 240.27 24.99 240.27C26.46 240.27 27.70 239.75 28.75 238.70C28.84 238.61 28.92 238.53 29.00 238.43C29.32 238.09 29.30 237.61 28.92 237.36C28.44 237.06 28.14 237.27 27.66 237.86C27.18 238.45 26.07 239.01 24.99 239.01C23.90 239.01 22.98 238.49 22.22 237.73C21.53 237.06 21.15 236.20 21.07 235.15C21.05 234.84 21.11 234.75 21.41 234.75L29.44 234.75C30.03 234.75 30.12 234.23 30.07 233.91ZM28.23 233.41L21.76 233.41C21.43 233.41 21.32 233.39 21.47 233.12C21.64 232.84 21.87 232.53 22.20 232.19C22.98 231.42 23.90 230.95 24.99 230.95C26.07 230.95 26.99 231.42 27.76 232.19C28.06 232.47 28.27 232.74 28.42 233.01C28.54 233.22 28.67 233.41 28.23 233.41ZM31.75 225.31L31.75 239.37C31.75 239.73 32.05 240 32.38 240L32.47 240C32.82 240 33.12 239.73 33.12 239.37C33.12 239.37 33.12 238.74 33.12 238.57C33.12 238.51 33.16 238.36 33.26 238.49C34.23 239.60 35.55 240.27 36.96 240.27C38.41 240.27 39.66 239.75 40.69 238.72C41.74 237.67 42.25 236.43 42.25 234.96C42.25 233.49 41.74 232.26 40.69 231.23C39.66 230.18 38.41 229.70 36.96 229.70C35.55 229.70 34.35 230.18 33.35 231.40C33.28 231.50 33.12 231.50 33.12 231.33C33.12 230.51 33.12 225.31 33.12 225.31C33.12 224.97 32.82 224.68 32.47 224.68L32.38 224.68C32.05 224.68 31.75 224.97 31.75 225.31ZM33.01 234.96C33.01 232.78 34.77 230.95 36.96 230.95C39.14 230.95 40.90 232.78 40.90 234.96C40.90 237.15 39.14 239.01 36.96 239.01C34.77 239.01 33.01 237.15 33.01 234.96ZM58.72 225.08C58.61 224.81 58.36 224.68 58.09 224.68C57.84 224.68 57.57 224.81 57.46 225.08L51.58 239.08C51.46 239.39 51.61 239.79 51.94 239.92L51.98 239.94C52.32 240.08 52.70 239.92 52.84 239.60C52.84 239.60 54.33 236.05 54.44 235.80C54.54 235.55 54.69 235.47 54.94 235.47C55.15 235.47 59.83 235.47 61.22 235.47C61.47 235.47 61.64 235.55 61.72 235.74C61.80 235.93 63.34 239.60 63.34 239.60C63.48 239.92 63.86 240.08 64.20 239.94L64.24 239.92C64.58 239.79 64.74 239.39 64.60 239.08L58.72 225.08ZM55.26 233.83C55.32 233.68 57.23 228.86 57.88 227.45C58.05 227.09 58.13 227.09 58.28 227.45C58.87 228.86 60.80 233.56 60.90 233.77C61.01 234.02 60.97 234.10 60.67 234.10C60.40 234.10 56.68 234.10 55.51 234.10C55.28 234.10 55.19 234.02 55.26 233.83ZM69.99 230.37C69.97 230.35 69.95 230.33 69.95 230.30C69.74 229.95 69.15 229.88 68.84 230.05C68.44 230.26 67.79 230.93 67.47 231.31C67.41 231.40 67.28 231.44 67.28 231.25C67.28 231.08 67.28 230.60 67.28 230.60C67.28 230.24 66.97 229.95 66.61 229.95L66.57 229.95C66.21 229.95 65.92 230.24 65.92 230.60L65.92 239.37C65.92 239.73 66.21 240 66.57 240L66.61 240C66.97 240 67.26 239.73 67.26 239.37L67.28 234.98C67.28 232.74 68.27 232.32 69.80 231.25C70.12 231.04 70.09 230.58 69.99 230.37ZM74.90 229.95C74.90 229.95 74.08 229.95 73.91 229.95C73.75 229.95 73.66 229.84 73.66 229.67C73.66 229.49 73.66 225.33 73.66 225.33C73.66 224.97 73.37 224.68 73.01 224.68L72.97 224.68C72.61 224.68 72.32 224.97 72.32 225.33C72.32 225.33 72.32 229.38 72.32 229.61C72.32 229.82 72.24 229.95 72.07 229.95C71.90 229.95 71.08 229.95 71.08 229.95C70.72 229.95 70.43 230.24 70.43 230.60L70.43 230.64C70.43 231.00 70.72 231.29 71.08 231.29C71.08 231.29 71.94 231.29 72.09 231.29C72.26 231.29 72.32 231.37 72.32 231.54C72.32 231.73 72.32 239.35 72.32 239.35C72.32 239.71 72.61 240 72.97 240L73.01 240C73.37 240 73.66 239.71 73.66 239.35C73.66 239.35 73.66 231.71 73.66 231.52C73.66 231.33 73.73 231.29 73.93 231.29C74.12 231.29 74.90 231.29 74.90 231.29C75.26 231.29 75.55 231.00 75.55 230.64L75.55 230.60C75.55 230.24 75.26 229.95 74.90 229.95ZM93.28 224.43C88.90 224.43 85.35 227.95 85.35 232.34C85.35 236.71 88.90 240.27 93.28 240.27C97.67 240.27 101.01 236.71 101.01 232.34C101.01 227.95 97.67 224.43 93.28 224.43ZM93.28 239.01C89.65 239.01 86.69 235.97 86.69 232.34C86.69 228.69 89.65 225.67 93.28 225.67C96.92 225.67 99.66 228.69 99.66 232.34C99.66 235.97 96.92 239.01 93.28 239.01ZM107.01 229.70C106.19 229.70 105.04 229.91 104.32 230.70C104.26 230.77 104.16 230.75 104.16 230.64C104.16 230.60 104.16 230.64 104.16 230.58C104.16 230.18 103.84 229.95 103.53 229.95L103.44 229.95C103.08 229.95 102.79 230.22 102.79 230.58L102.81 239.35C102.81 239.71 103.11 240 103.46 240L103.53 240C103.88 240 104.18 239.71 104.18 239.35C104.18 239.35 104.18 233.81 104.18 233.56C104.18 231.82 105.10 230.95 107.01 230.95C108.46 230.95 110.03 231.86 110.03 233.93L110.03 239.35C110.03 239.71 110.33 240 110.68 240L110.72 240C111.08 240 111.37 239.71 111.37 239.35L111.37 233.85C111.37 230.60 108.92 229.70 107.01 229.70ZM114.17 224.68L114.12 224.68C113.77 224.68 113.47 224.97 113.47 225.33L113.47 239.35C113.47 239.71 113.77 240 114.12 240L114.17 240C114.52 240 114.82 239.71 114.82 239.35L114.82 225.33C114.82 224.97 114.52 224.68 114.17 224.68ZM117.61 229.95L117.57 229.95C117.21 229.95 116.92 230.24 116.92 230.60L116.92 239.35C116.92 239.71 117.21 240 117.57 240L117.61 240C117.96 240 118.26 239.71 118.26 239.35L118.26 230.60C118.26 230.24 117.96 229.95 117.61 229.95ZM124.58 229.70C123.76 229.70 122.60 229.91 121.89 230.70C121.83 230.77 121.72 230.75 121.72 230.64C121.72 230.60 121.72 230.64 121.72 230.58C121.72 230.18 121.41 229.95 121.09 229.95L121.01 229.95C120.65 229.95 120.36 230.22 120.36 230.58L120.38 239.35C120.38 239.71 120.67 240 121.03 240L121.09 240C121.45 240 121.74 239.71 121.74 239.35C121.74 239.35 121.74 233.81 121.74 233.56C121.74 231.82 122.67 230.95 124.58 230.95C126.02 230.95 127.60 231.86 127.60 233.93L127.60 239.35C127.60 239.71 127.89 240 128.25 240L128.29 240C128.65 240 128.94 239.71 128.94 239.35L128.94 233.85C128.94 230.60 126.48 229.70 124.58 229.70ZM141.05 233.91C140.90 232.86 140.46 231.96 139.73 231.23C138.68 230.18 137.44 229.70 135.97 229.70C134.50 229.70 133.26 230.18 132.21 231.23C131.19 232.26 130.66 233.49 130.66 234.96C130.66 236.43 131.19 237.67 132.21 238.72C133.26 239.75 134.50 240.27 135.97 240.27C137.44 240.27 138.68 239.75 139.73 238.70C139.81 238.61 139.90 238.53 139.98 238.43C140.29 238.09 140.27 237.61 139.90 237.36C139.41 237.06 139.12 237.27 138.64 237.86C138.15 238.45 137.04 239.01 135.97 239.01C134.88 239.01 133.96 238.49 133.20 237.73C132.51 237.06 132.13 236.20 132.05 235.15C132.03 234.84 132.09 234.75 132.38 234.75L140.42 234.75C141.01 234.75 141.09 234.23 141.05 233.91ZM139.20 233.41L132.74 233.41C132.40 233.41 132.30 233.39 132.44 233.12C132.61 232.84 132.84 232.53 133.18 232.19C133.96 231.42 134.88 230.95 135.97 230.95C137.04 230.95 137.96 231.42 138.74 232.19C139.03 232.47 139.24 232.74 139.39 233.01C139.52 233.22 139.64 233.41 139.20 233.41Z" fill="#ffffff" style="fill: rgb(255, 255, 255);"></path></g><g id="SvgjsG2480" transform="translate(0,0) scale(1.9)" rel="mainfill" name="outline_container" xmlns:name="outlineContainer_mainfill" fill="#ffffff"><path d="M145.9 72.1a15.6 15.6 0 0 1-7-10.4 15.4 15.4 0 0 1 2.9-12.1L143 48l-2-.4a15.6 15.6 0 0 1-10-7.4 15.4 15.4 0 0 1-1.4-12.4l.6-2-2 .3a15.6 15.6 0 0 1-12-3.5 15.4 15.4 0 0 1-5.5-11.1V9.4l-1.8 1a15.6 15.6 0 0 1-12.5.8 15.6 15.6 0 0 1-9.1-8.7L86.4.6 85 2.1a15.4 15.4 0 0 1-11.2 4.6 15.6 15.6 0 0 1-11.5-5.1L60.9 0l-.8 2a15.6 15.6 0 0 1-9.1 8.8 15.6 15.6 0 0 1-12.6-.9l-1.9-1V11A15.6 15.6 0 0 1 31 22.4a15.7 15.7 0 0 1-12 3.5l-2.1-.3.7 2a15.5 15.5 0 0 1-1.1 13.1 15.4 15.4 0 0 1-10 7.4l-2 .5 1.3 1.6a15.6 15.6 0 0 1 3 12.2 15.4 15.4 0 0 1-7.1 10.3L0 73.8l1.7 1.1a15.6 15.6 0 0 1 7 10.4 15.4 15.4 0 0 1-2.9 12.1L4.5 99l2 .4a15.6 15.6 0 0 1 10.1 7.4 15.4 15.4 0 0 1 1.4 12.4l-.6 2 2-.3a15.7 15.7 0 0 1 12 3.5 15.4 15.4 0 0 1 5.5 11.1v2.1l1.8-1a15.7 15.7 0 0 1 12.5-.8 15.4 15.4 0 0 1 9 8.6l.8 1.9 1.4-1.5a15.6 15.6 0 0 1 11.5-5.1 15.4 15.4 0 0 1 11.4 5l1.4 1.5.8-1.9a15.5 15.5 0 0 1 21.4-7.9l1.8.9v-2.1a15.5 15.5 0 0 1 17.4-14.8l2 .3-.6-2a15.6 15.6 0 0 1 1.3-12.5 15.4 15.4 0 0 1 10-7.4l2-.5-1.3-1.6a15.6 15.6 0 0 1-3-12.2 15.4 15.4 0 0 1 7.5-10.1l1.7-1.1zM108.5 15zM96.6 132.9zm36.6-50.1a1.2 1.2 0 0 0-.4 1.9c6.4 6.6 2.7 16.9-6.5 17.8a1.2 1.2 0 0 0-.9 1.7 10.3 10.3 0 0 1-12 14.5 1.2 1.2 0 0 0-1.6 1.4 10.3 10.3 0 0 1-16.4 9.3 1.2 1.2 0 0 0-1.9.6c-2.5 8.9-13.3 10.8-18.7 3.3a1.2 1.2 0 0 0-1.9.1 10.3 10.3 0 0 1-18.6-3.2 1.2 1.2 0 0 0-2-.7 10.3 10.3 0 0 1-16.2-9.5 1.2 1.2 0 0 0-1.4-1.3c-8.9 2.3-16-6.1-12.2-14.5a1.2 1.2 0 0 0-1-1.7 10.3 10.3 0 0 1-6.6-17.7 1.2 1.2 0 0 0-.4-2.1 10.3 10.3 0 0 1 .1-18.8A1.2 1.2 0 0 0 15 62c-6.4-6.6-2.6-17 6.5-17.8a1.2 1.2 0 0 0 .9-1.7c-4.2-8.3 2.9-17.3 11.9-14.9a1.2 1.2 0 0 0 1.7-1.4 10.3 10.3 0 0 1 16.5-9.3 1.2 1.2 0 0 0 1.9-.6c2.4-9 13.4-10.9 18.8-3.3a1.2 1.2 0 0 0 1.9-.1 10.3 10.3 0 0 1 18.4 3.5 1.2 1.2 0 0 0 2 .7 10.3 10.3 0 0 1 16.3 9.5 1.2 1.2 0 0 0 1.4 1.3c8.9-2.3 16 6.1 12.2 14.5a1.2 1.2 0 0 0 1 1.6 10.3 10.3 0 0 1 6.6 17.7l-.4.5a1.3 1.3 0 0 0-.1.5 1.2 1.2 0 0 0 .5 1l.4.2a10.3 10.3 0 0 1-.2 18.9zm8.5-8.4z" fill="#ffffff" style="fill: rgb(255, 255, 255);"></path></g></svg>
