<svg xmlns="http://www.w3.org/2000/svg" width="16" height="16" viewBox="0 0 16 16">
  <path fill-rule="evenodd" d="M5.403 7.056l-.176-.176a2.251 2.251 0 0 1 0-3.182l1.945-1.944a4.001 4.001 0 0 1 5.656 0l1.415 1.414a4.002 4.002 0 0 1 0 5.657l-1.945 1.944a2.251 2.251 0 0 1-3.182 0l-.177-.177-1.232 1.231c-.131.131-.408.391-.842.391-.81 0-1.973-.247-2.219 0-.262.259-.152.655-.15 1.781.019.643-.731 1-1.496 1H2c-.659 0-1-.295-1-1v-2.018c0-.32.122-.64.366-.883l4.037-4.038zm7.002-.777a1 1 0 0 0 0-1.414l-1.273-1.274a1 1 0 0 0-1.414 1.414l1.273 1.274a1 1 0 0 0 1.414 0z"/>
</svg>
