<svg xmlns="http://www.w3.org/2000/svg" width="16" height="16" viewBox="0 0 16 16">
    <path fill-rule="evenodd" d="M7.627 13.203l4.237-4.237 2.17 2.17-3.152 3.152-1.085 1.085c-.001.001-.243.225-.712.314l-1.621.306a.438.438 0 0 1-.36-.097.438.438 0 0 1-.097-.36l.306-1.621c.089-.468.312-.71.314-.712zM5.557 14H2.013a1 1 0 0 1-1-1v-.3c0-2.48 2.01-4.494 4.488-4.5v-.796a3 3 0 0 1-1.488-2.591V3a3.001 3.001 0 0 1 6 0v1.813a3 3 0 0 1-1.488 2.591V8.2a4.52 4.52 0 0 1 1.199.165 2477.73 2477.73 0 0 0-3.326 3.329c-.004.004-.509.552-.71 1.611L5.557 14zm8.994-6.812a.643.643 0 0 0-.909 0l-.856.856 2.17 2.17.856-.856a.643.643 0 0 0 0-.909l-1.261-1.261z"/>
</svg>